:FULLY-SPECIFIED
:FORCE-ALL-JOINTS-BE-3DOF
:DEGREES
611
root 5.62768 16.6713 -3.76132 2.87889 52.6198 -5.15788
lfemur -17.9646 24.6784 -22.0107
ltibia 40.3861 0 0
lfoot -32.5277 24.9959 0
ltoes 18.1731 0 0
rfemur -52.9786 -17.9065 28.1352
rtibia 61.845 0 0
rfoot 7.94707 29.8079 0
rtoes -3.517 0 0
lowerback 3.55234 -3.31299 -4.93229
upperback 0.0792295 -4.59808 1.09451
thorax -1.42734 -2.26181 4.08669
lowerneck -8.3727 -9.39909 -0.516982
upperneck 14.9305 -13.4075 4.5918
head 6.26328 -6.16246 0.45298
lclavicle 9.58409e-14 9.38501e-15 0
lhumerus -22.3185 -42.1831 92.9688
lradius 56.6605 0 0
lwrist 20.5917 0 0
lhand -10.4161 0.360735 0
lfingers 7.12502 0 0
lthumb 15.5832 29.7576 0
rclavicle 9.58409e-14 9.38501e-15 0
rhumerus 21.9946 3.70231 -72.1258
rradius 118.397 0 0
rwrist -58.7136 0 0
rhand -27.0285 -22.4491 0
rfingers 7.12502 0 0
rthumb -0.44767 -772.427 0
612
root 5.63522 16.6792 -3.75144 5.60822 51.2302 -2.66242
lfemur -17.8081 24.7035 -22.0299
ltibia 40.0206 0 0
lfoot -32.5408 24.7881 0
ltoes 18.7954 0 0
rfemur -52.8098 -17.9659 27.9982
rtibia 61.9193 0 0
rfoot 7.84872 29.2167 0
rtoes -3.27776 0 0
lowerback 3.36746 -3.34984 -4.85683
upperback -0.0477154 -4.6406 1.12331
thorax -1.45243 -2.28092 4.06889
lowerneck -8.49155 -9.26997 -0.403263
upperneck 14.9707 -13.2418 4.51052
head 6.27638 -6.07951 0.41839
lclavicle 9.35246e-14 8.13937e-15 0
lhumerus -22.3967 -42.952 93.5272
lradius 57.1926 0 0
lwrist 20.5276 0 0
lhand -10.2433 0.352262 0
lfingers 7.12502 0 0
lthumb 15.7498 29.7401 0
rclavicle 9.35246e-14 8.13937e-15 0
rhumerus 21.14 3.60532 -71.7705
rradius 117.447 0 0
rwrist -58.5688 0 0
rhand -27.16 -22.7102 0
rfingers 7.12502 0 0
rthumb -0.574653 -772.688 0
613
root 5.64276 16.687 -3.74157 7.83596 49.8461 -0.68751
lfemur -17.6131 24.5959 -22.0233
ltibia 39.6154 0 0
lfoot -32.5469 24.4597 0
ltoes 19.4237 0 0
rfemur -52.5542 -17.9878 27.73
rtibia 61.9764 0 0
rfoot 7.77412 28.3853 0
rtoes -3.1068 0 0
lowerback 3.15943 -3.37716 -4.764
upperback -0.183577 -4.66898 1.16913
thorax -1.47535 -2.29299 4.05738
lowerneck -8.61201 -9.14462 -0.290608
upperneck 15.011 -13.0805 4.4216
head 6.28965 -5.99931 0.381033
lclavicle 9.02555e-14 6.63262e-15 0
lhumerus -22.4983 -43.7271 94.1087
lradius 57.7893 0 0
lwrist 20.4747 0 0
lhand -10.1092 0.319873 0
lfingers 7.12502 0 0
lthumb 15.8792 29.7009 0
rclavicle 9.02555e-14 6.63262e-15 0
rhumerus 20.2042 3.59201 -71.3452
rradius 116.479 0 0
rwrist -58.3327 0 0
rhand -27.3056 -22.9741 0
rfingers 7.12502 0 0
rthumb -0.715268 -772.95 0
614
root 5.65029 16.6948 -3.73169 9.60362 48.4684 0.810428
lfemur -17.3847 24.3699 -21.9944
ltibia 39.1763 0 0
lfoot -32.5473 24.0233 0
ltoes 20.0542 0 0
rfemur -52.2233 -17.9775 27.3465
rtibia 62.0183 0 0
rfoot 7.71908 27.3384 0
rtoes -2.99714 0 0
lowerback 2.93121 -3.39586 -4.65621
upperback -0.326953 -4.68463 1.22977
thorax -1.49613 -2.29873 4.05142
lowerneck -8.73342 -9.02304 -0.179525
upperneck 15.0496 -12.9237 4.32668
head 6.30259 -5.92182 0.341588
lclavicle 8.61316e-14 4.89748e-15 0
lhumerus -22.6232 -44.5073 94.7122
lradius 58.4428 0 0
lwrist 20.4325 0 0
lhand -10.0097 0.26665 0
lfingers 7.12502 0 0
lthumb 15.9752 29.6428 0
rclavicle 8.61316e-14 4.89748e-15 0
rhumerus 19.1921 3.65264 -70.8598
rradius 115.491 0 0
rwrist -58.0104 0 0
rhand -27.4634 -23.2423 0
rfingers 7.12502 0 0
rthumb -0.867649 -773.217 0
615
root 5.65783 16.7027 -3.72181 10.9527 47.0976 1.87498
lfemur -17.1277 24.0397 -21.9467
ltibia 38.7091 0 0
lfoot -32.5432 23.4913 0
ltoes 20.6832 0 0
rfemur -51.8288 -17.9405 26.8637
rtibia 62.0475 0 0
rfoot 7.67941 26.1006 0
rtoes -2.94184 0 0
lowerback 2.68576 -3.40689 -4.53588
upperback -0.476438 -4.68896 1.30304
thorax -1.51484 -2.29884 4.05027
lowerneck -8.85515 -8.90526 -0.0705213
upperneck 15.0847 -12.7712 4.2274
head 6.3147 -5.84701 0.300737
lclavicle 8.12509e-14 2.96667e-15 0
lhumerus -22.7714 -45.2916 95.3367
lradius 59.1454 0 0
lwrist 20.401 0 0
lhand -9.94077 0.195676 0
lfingers 7.12502 0 0
lthumb 16.0417 29.5686 0
rclavicle 8.12509e-14 2.96667e-15 0
rhumerus 18.1088 3.77741 -70.3245
rradius 114.483 0 0
rwrist -57.6069 0 0
rhand -27.6314 -23.5167 0
rfingers 7.12502 0 0
rthumb -1.02993 -773.49 0
616
root 5.66537 16.7105 -3.71193 11.9247 45.7347 2.54973
lfemur -16.8471 23.6195 -21.8841
ltibia 38.2197 0 0
lfoot -32.536 22.8763 0
ltoes 21.307 0 0
rfemur -51.3823 -17.8821 26.2978
rtibia 62.0663 0 0
rfoot 7.65091 24.6969 0
rtoes -2.93394 0 0
lowerback 2.42604 -3.41117 -4.40542
upperback -0.63063 -4.68336 1.38673
thorax -1.53151 -2.29405 4.05316
lowerneck -8.97656 -8.79128 0.0358943
upperneck 15.1146 -12.6232 4.1254
head 6.3255 -5.77486 0.25916
lclavicle 7.57115e-14 8.72928e-16 0
lhumerus -22.9428 -46.079 95.9812
lradius 59.8895 0 0
lwrist 20.3796 0 0
lhand -9.89858 0.110033 0
lfingers 7.12502 0 0
lthumb 16.0824 29.4811 0
rclavicle 7.57115e-14 8.72928e-16 0
rhumerus 16.9593 3.95658 -69.7494
rradius 113.455 0 0
rwrist -57.1272 0 0
rhand -27.8078 -23.7987 0
rfingers 7.12502 0 0
rthumb -1.20025 -773.771 0
617
root 5.67291 16.7183 -3.70205 12.5611 44.3802 2.87827
lfemur -16.5477 23.1236 -21.81
ltibia 37.714 0 0
lfoot -32.527 22.1907 0
ltoes 21.9219 0 0
rfemur -50.8953 -17.8076 25.6647
rtibia 62.0769 0 0
rfoot 7.62941 23.152 0
rtoes -2.96648 0 0
lowerback 2.15502 -3.40962 -4.26724
upperback -0.788125 -4.66926 1.47866
thorax -1.5462 -2.28504 4.05936
lowerneck -9.097 -8.68113 0.139214
upperneck 15.1374 -12.4795 4.02231
head 6.33449 -5.70533 0.217536
lclavicle 6.96114e-14 -1.35102e-15 0
lhumerus -23.1376 -46.8685 96.6446
lradius 60.6673 0 0
lwrist 20.3683 0 0
lhand -9.87911 0.0128038 0
lfingers 7.12502 0 0
lthumb 16.1012 29.3833 0
rclavicle 6.96114e-14 -1.35102e-15 0
rhumerus 15.7487 4.18036 -69.1445
rradius 112.406 0 0
rwrist -56.5765 0 0
rhand -27.9905 -24.0903 0
rfingers 7.12502 0 0
rthumb -1.37675 -774.061 0
618
root 5.68045 16.7262 -3.69218 12.9035 43.035 2.90417
lfemur -16.2346 22.5662 -21.728
ltibia 37.1976 0 0
lfoot -32.5175 21.447 0
ltoes 22.5241 0 0
rfemur -50.3795 -17.7226 24.9805
rtibia 62.0815 0 0
rfoot 7.61071 21.4905 0
rtoes -3.03251 0 0
lowerback 1.87565 -3.40318 -4.12377
upperback -0.94752 -4.64805 1.57662
thorax -1.55894 -2.27253 4.06812
lowerneck -9.21584 -8.57481 0.238931
upperneck 15.1513 -12.3402 3.91976
head 6.34116 -5.63839 0.176545
lclavicle 6.30488e-14 -3.67244e-15 0
lhumerus -23.3556 -47.6591 97.326
lradius 61.4713 0 0
lwrist 20.3667 0 0
lhand -9.8784 -0.0929294 0
lfingers 7.12502 0 0
lthumb 16.1019 29.2778 0
rclavicle 6.30488e-14 -3.67244e-15 0
rhumerus 14.4819 4.43899 -68.52
rradius 111.335 0 0
rwrist -55.9598 0 0
rhand -28.1777 -24.3929 0
rfingers 7.12502 0 0
rthumb -1.55756 -774.362 0
619
root 5.68799 16.734 -3.6823 12.9933 41.6999 2.67103
lfemur -15.9127 21.9615 -21.6418
ltibia 36.6765 0 0
lfoot -32.5087 20.6578 0
ltoes 23.1098 0 0
rfemur -49.8464 -17.6322 24.2612
rtibia 62.0826 0 0
rfoot 7.59061 19.7374 0
rtoes -3.12507 0 0
lowerback 1.59089 -3.39277 -3.97741
upperback -1.10741 -4.62114 1.67842
thorax -1.5698 -2.25724 4.07868
lowerneck -9.33242 -8.47234 0.334536
upperneck 15.1546 -12.2052 3.81939
head 6.34503 -5.57401 0.136868
lclavicle 5.61215e-14 -6.05861e-15 0
lhumerus -23.5969 -48.4499 98.0242
lradius 62.2936 0 0
lwrist 20.3745 0 0
lhand -9.89248 -0.204084 0
lfingers 7.12502 0 0
lthumb 16.0884 29.1676 0
rclavicle 5.61215e-14 -6.05861e-15 0
rhumerus 13.164 4.7227 -67.886
rradius 110.243 0 0
rwrist -55.2822 0 0
rhand -28.3675 -24.7085 0
rfingers 7.12502 0 0
rthumb -1.74081 -774.676 0
620
root 5.69553 16.7418 -3.67242 12.872 40.3754 2.22242
lfemur -15.5869 21.3238 -21.5551
ltibia 36.1564 0 0
lfoot -32.5019 19.8355 0
ltoes 23.6755 0 0
rfemur -49.3077 -17.5419 23.5229
rtibia 62.0823 0 0
rfoot 7.56493 17.9173 0
rtoes -3.23721 0 0
lowerback 1.3037 -3.37932 -3.83059
upperback -1.26639 -4.58994 1.78186
thorax -1.57881 -2.23986 4.0903
lowerneck -9.44611 -8.37374 0.425521
upperneck 15.1455 -12.0746 3.72284
head 6.34559 -5.51217 0.0991849
lclavicle 4.89278e-14 -8.4768e-15 0
lhumerus -23.8614 -49.2397 98.7384
lradius 63.1266 0 0
lwrist 20.3915 0 0
lhand -9.91737 -0.317578 0
lfingers 7.12502 0 0
lthumb 16.0644 29.0555 0
rclavicle 4.89278e-14 -8.4768e-15 0
rhumerus 11.8 5.02173 -67.2525
rradius 109.128 0 0
rwrist -54.5487 0 0
rhand -28.5578 -25.0385 0
rfingers 7.12502 0 0
rthumb -1.92464 -775.004 0
621
root 5.70306 16.7497 -3.66254 12.5811 39.0625 1.60194
lfemur -15.2621 20.6672 -21.4713
ltibia 35.6432 0 0
lfoot -32.4985 18.9927 0
ltoes 24.2173 0 0
rfemur -48.7749 -17.4571 22.7815
rtibia 62.083 0 0
rfoot 7.52947 16.055 0
rtoes -3.36196 0 0
lowerback 1.01705 -3.36377 -3.68571
upperback -1.42307 -4.55587 1.88474
thorax -1.58603 -2.2211 4.10223
lowerneck -9.55626 -8.27902 0.51138
upperneck 15.1222 -11.9484 3.63175
head 6.34236 -5.45283 0.0641755
lclavicle 4.15655e-14 -1.08943e-14 0
lhumerus -24.1491 -50.0276 99.4674
lradius 63.9625 0 0
lwrist 20.4174 0 0
lhand -9.94912 -0.430328 0
lfingers 7.12502 0 0
lthumb 16.0338 28.9443 0
rclavicle 4.15655e-14 -1.08943e-14 0
rhumerus 10.3948 5.3263 -66.6296
rradius 107.991 0 0
rwrist -53.7644 0 0
rhand -28.7469 -25.3848 0
rfingers 7.12502 0 0
rthumb -2.1072 -775.349 0
622
root 5.7106 16.7575 -3.65266 12.1622 37.7618 0.853168
lfemur -14.9433 20.006 -21.3941
ltibia 35.1427 0 0
lfoot -32.4997 18.1419 0
ltoes 24.7316 0 0
rfemur -48.2597 -17.3831 22.0532
rtibia 62.0869 0 0
rfoot 7.48005 14.1753 0
rtoes -3.49239 0 0
lowerback 0.733896 -3.34703 -3.5452
upperback -1.57603 -4.52031 1.98486
thorax -1.59151 -2.20168 4.11372
lowerneck -9.66223 -8.18819 0.591603
upperneck 15.0828 -11.8264 3.54774
head 6.33482 -5.39597 0.0325199
lclavicle 3.41328e-14 -1.32783e-14 0
lhumerus -24.46 -50.8126 100.21
lradius 64.7939 0 0
lwrist 20.4518 0 0
lhand -9.98376 -0.539252 0
lfingers 7.12502 0 0
lthumb 16.0003 28.8368 0
rclavicle 3.41328e-14 -1.32783e-14 0
rhumerus 8.95362 5.62665 -66.0275
rradius 106.83 0 0
rwrist -52.9344 0 0
rhand -28.9326 -25.7489 0
rfingers 7.12502 0 0
rthumb -2.2866 -775.711 0
623
root 5.71814 16.7653 -3.64278 11.6568 36.474 0.0196878
lfemur -14.6355 19.3544 -21.3272
ltibia 34.6607 0 0
lfoot -32.5068 17.2955 0
ltoes 25.2145 0 0
rfemur -47.7736 -17.3253 21.3539
rtibia 62.0963 0 0
rfoot 7.41248 12.303 0
rtoes -3.62152 0 0
lowerback 0.457193 -3.33003 -3.41146
upperback -1.72387 -4.48469 2.08004
thorax -1.59528 -2.1823 4.12403
lowerneck -9.76339 -8.10127 0.665683
upperneck 15.0257 -11.7088 3.47246
head 6.3225 -5.34155 0.00489831
lclavicle 2.67277e-14 -1.55962e-14 0
lhumerus -24.794 -51.5936 100.966
lradius 65.6128 0 0
lwrist 20.4945 0 0
lhand -10.0173 -0.641268 0
lfingers 7.12502 0 0
lthumb 15.9679 28.7359 0
rclavicle 2.67277e-14 -1.55962e-14 0
rhumerus 7.48136 5.913 -65.4563
rradius 105.646 0 0
rwrist -52.0637 0 0
rhand -29.1132 -26.1327 0
rfingers 7.12502 0 0
rthumb -2.461 -776.093 0
